<svg width="1736" height="683" viewBox="0 0 1736 683" fill="none" xmlns="http://www.w3.org/2000/svg">
<path d="M1695.39 0.404541C1686.05 0.404541 1677.23 4.75996 1671.56 12.1847L1621.82 77.2512C1617.82 82.483 1615.65 88.8856 1615.65 95.4711V185.23L1615.52 218.628C1615.46 235.152 1602.05 248.515 1585.52 248.515H1011.7L964.09 249.906H868H771.91L724.301 248.515H151.501C134.985 248.515 121.575 235.166 121.501 218.651L121.35 185.23V95.4711C121.35 88.8856 119.183 82.483 115.184 77.2512L65.4425 12.1847C59.7666 4.75996 50.9547 0.404541 41.609 0.404541H30C13.4315 0.404541 0 13.836 0 30.4045V652.772C0 669.341 13.4315 682.772 30 682.772H868H1706C1722.57 682.772 1736 669.341 1736 652.772V30.4046C1736 13.836 1722.57 0.404541 1706 0.404541H1695.39Z" fill="#F3F3F3"/>
</svg>
