<svg width="30" height="30" viewBox="0 0 30 30" fill="none" xmlns="http://www.w3.org/2000/svg">
<path d="M9.17686 12.6056L15.0034 6.78145L20.8323 12.6104L24.2207 9.21965L15.0034 0L5.78613 9.21728L9.17686 12.6056Z" fill="#F3BA2F"/>
<path d="M0 15.0012L3.38836 11.6105L6.77909 15.0012L3.38836 18.3896L0 15.0012Z" fill="#F3BA2F"/>
<path d="M9.17686 17.3943L15.0034 23.2209L20.8323 17.392L24.2231 20.778L15.0058 29.9976L5.78613 20.7851L9.17686 17.3943Z" fill="#F3BA2F"/>
<path d="M23.2207 15.0012L26.6091 11.6105L29.9998 14.9988L26.6091 18.3919L23.2207 15.0012Z" fill="#F3BA2F"/>
<path d="M18.4417 14.9988L15.0035 11.5583L12.4611 14.1008L12.1673 14.3922L11.5654 14.9941L15.0035 18.4298L18.4417 15.0012V14.9988Z" fill="#F3BA2F"/>
</svg>
