<svg width="20" height="25" viewBox="0 0 20 25" fill="none" xmlns="http://www.w3.org/2000/svg">
<path d="M11 4.27246C11 4.53768 11.1054 4.79203 11.2929 4.97957C11.4804 5.1671 11.7348 5.27246 12 5.27246H15.966C15.8924 4.62314 15.6074 4.016 15.155 3.54446L12.871 1.18546C12.3714 0.679009 11.7085 0.365835 11 0.301461V4.27246ZM9 4.27246V0.272461H5C3.6744 0.274049 2.40356 0.801343 1.46622 1.73868C0.528882 2.67602 0.00158786 3.94687 0 5.27246V15.2725C0.00158786 16.5981 0.528882 17.8689 1.46622 18.8062C2.40356 19.7436 3.6744 20.2709 5 20.2725H11C12.3256 20.2709 13.5964 19.7436 14.5338 18.8062C15.4711 17.8689 15.9984 16.5981 16 15.2725V7.27246H12C11.2044 7.27246 10.4413 6.95639 9.87868 6.39378C9.31607 5.83117 9 5.06811 9 4.27246ZM15 24.2725H6C5.73478 24.2725 5.48043 24.1671 5.29289 23.9796C5.10536 23.792 5 23.5377 5 23.2725C5 23.0072 5.10536 22.7529 5.29289 22.5654C5.48043 22.3778 5.73478 22.2725 6 22.2725H15C15.7956 22.2725 16.5587 21.9564 17.1213 21.3938C17.6839 20.8312 18 20.0681 18 19.2725V8.27246C18 8.00724 18.1054 7.75289 18.2929 7.56535C18.4804 7.37782 18.7348 7.27246 19 7.27246C19.2652 7.27246 19.5196 7.37782 19.7071 7.56535C19.8946 7.75289 20 8.00724 20 8.27246V19.2725C19.9984 20.5981 19.4711 21.8689 18.5338 22.8062C17.5964 23.7436 16.3256 24.2709 15 24.2725Z" fill="black"/>
</svg>
