<svg width="96" height="67" viewBox="0 0 96 67" fill="none" xmlns="http://www.w3.org/2000/svg">
<path d="M6.83083 18.0009C6.75158 17.9815 6.75158 17.9815 6.74309 18.0626L2.95714 31.3269C2.69673 32.262 2.16036 32.3384 1.41879 31.6568C1.26878 31.5367 1.16264 31.3858 1.02112 31.1845C0.455039 30.3795 0.222956 29.49 0.360248 28.5664C1.56049 20.2032 2.87396 11.5348 4.33603 2.6115C4.55117 1.33234 5.18804 -0.0930069 6.71082 0.114441C9.15775 0.423954 10.873 2.67664 13.0156 3.95205C15.2375 5.24692 17.591 6.44924 19.8129 7.74411C22.0348 9.03898 24.2128 10.3647 26.47 11.7099C26.5054 11.7602 26.5408 11.8105 26.4969 11.8414C24.2255 13.7394 21.954 13.3065 19.0302 12.5052C17.0135 11.9684 15.0053 11.3504 13.041 10.7015C12.9617 10.682 12.9178 10.7129 12.9093 10.794C13.1343 12.1397 13.4471 13.4236 13.8476 14.6458C15.3604 19.2214 17.1194 23.7742 19.2917 28.262C24.4529 39.1447 31.8332 48.2414 41.4325 55.552C45.7999 58.8723 50.4347 60.8013 55.371 61.0145C61.0376 61.2405 66.7325 59.642 71.8457 57.7758C76.4933 56.0867 80.6711 53.4496 84.4315 49.7527C88.3758 45.8512 91.8601 41.2956 94.9015 35.9237C94.9978 35.7808 95.077 35.8003 95.1916 35.87L95.7563 36.3001C95.9063 36.4202 95.9332 36.5516 95.9162 36.714C93.9631 43.7268 89.8928 49.2207 84.9225 53.9941C81.574 57.2511 77.8094 59.8231 73.5765 61.8222C69.4751 63.7288 65.1077 65.0705 60.5096 65.8977C53.3443 67.1768 46.4239 65.7271 39.8276 61.5681C38.1873 60.541 36.5202 59.3823 34.8347 58.011C25.3839 50.4455 18.0829 41.3683 12.9317 30.7794C10.99 26.8061 9.43478 22.6363 7.66014 18.6208C7.48325 18.3692 7.22709 18.0982 6.83083 18.0009Z" fill="white"/>
</svg>
