<svg width="28" height="21" viewBox="0 0 28 21" fill="none" xmlns="http://www.w3.org/2000/svg">
<path d="M23.8013 2.93639C21.4463 1.04128 17.7208 0.720032 17.5613 0.708476C17.314 0.687676 17.0783 0.826343 16.9766 1.05514C16.9673 1.06901 16.8864 1.25621 16.7963 1.54741C18.354 1.81088 20.2676 2.34012 21.9986 3.41479C22.276 3.58581 22.3615 3.95097 22.1904 4.2283C22.0772 4.41088 21.8854 4.51025 21.6866 4.51025C21.5803 4.51025 21.4717 4.48021 21.3746 4.42012C18.3979 2.57354 14.6816 2.4811 13.9652 2.4811C13.2488 2.4811 9.53018 2.57354 6.55578 4.42012C6.27844 4.59345 5.91329 4.50794 5.74227 4.23061C5.56893 3.95097 5.65444 3.58812 5.93178 3.41479C7.6628 2.34243 9.5764 1.81088 11.1341 1.54972C11.044 1.25621 10.9631 1.07132 10.9561 1.05514C10.8521 0.826343 10.6187 0.683054 10.3691 0.708476C10.2096 0.720032 6.48413 1.04128 4.09675 2.96181C2.85107 4.11505 0.357376 10.8543 0.357376 16.6806C0.357376 16.7846 0.385109 16.8839 0.435954 16.9741C2.15542 19.997 6.84929 20.7874 7.91933 20.8221C7.92395 20.8221 7.93089 20.8221 7.93782 20.8221C8.12733 20.8221 8.30529 20.7319 8.41622 20.5794L9.49782 19.0911C6.57889 18.3376 5.08822 17.0573 5.00271 16.981C4.75773 16.7661 4.73462 16.3917 4.95187 16.1467C5.1668 15.9017 5.5412 15.8786 5.78618 16.0935C5.82084 16.1259 8.56644 18.4555 13.9652 18.4555C19.3732 18.4555 22.1188 16.1167 22.1465 16.0935C22.3915 15.8809 22.7636 15.9017 22.9808 16.149C23.1958 16.394 23.1727 16.7661 22.9277 16.981C22.8422 17.0573 21.3515 18.3376 18.4326 19.0911L19.5142 20.5794C19.6251 20.7319 19.8031 20.8221 19.9926 20.8221C19.9995 20.8221 20.0064 20.8221 20.0111 20.8221C21.0811 20.7874 25.775 19.997 27.4944 16.9741C27.5453 16.8839 27.573 16.7846 27.573 16.6806C27.573 10.8543 25.0793 4.11505 23.8013 2.93639ZM10.1195 14.314C8.97551 14.314 8.04875 13.2555 8.04875 11.9474C8.04875 10.6393 8.97551 9.58083 10.1195 9.58083C11.2635 9.58083 12.1903 10.6393 12.1903 11.9474C12.1903 13.2555 11.2635 14.314 10.1195 14.314ZM17.8109 14.314C16.6669 14.314 15.7401 13.2555 15.7401 11.9474C15.7401 10.6393 16.6669 9.58083 17.8109 9.58083C18.9549 9.58083 19.8816 10.6393 19.8816 11.9474C19.8816 13.2555 18.9549 14.314 17.8109 14.314Z" fill="#111111"/>
</svg>
