<svg width="24" height="24" viewBox="0 0 24 24" fill="none" xmlns="http://www.w3.org/2000/svg">
<path d="M7.00548 0.799805C3.28968 0.799805 0.266243 3.82502 0.266243 7.54175V17.1708C0.266243 20.887 3.29146 23.9109 7.00819 23.9109H16.6372C20.3535 23.9109 23.3774 20.8857 23.3774 17.169V7.53904C23.3774 3.82324 20.3521 0.799805 16.6354 0.799805H7.00548ZM18.7551 4.49758C19.2654 4.49758 19.6796 4.91173 19.6796 5.42203C19.6796 5.93232 19.2654 6.34647 18.7551 6.34647C18.2448 6.34647 17.8307 5.93232 17.8307 5.42203C17.8307 4.91173 18.2448 4.49758 18.7551 4.49758ZM11.8218 6.34647C15.1359 6.34647 17.8307 9.04123 17.8307 12.3554C17.8307 15.6695 15.1355 18.3643 11.8218 18.3643C8.50767 18.3643 5.81291 15.669 5.81291 12.3554C5.81291 9.04169 8.50767 6.34647 11.8218 6.34647ZM11.8218 8.19536C9.52409 8.19536 7.6618 10.0577 7.6618 12.3554C7.6618 14.6531 9.52409 16.5154 11.8218 16.5154C14.1195 16.5154 15.9818 14.6531 15.9818 12.3554C15.9818 10.0577 14.1195 8.19536 11.8218 8.19536Z" fill="#111111"/>
</svg>
