<svg width="26" height="25" viewBox="0 0 26 25" fill="none" xmlns="http://www.w3.org/2000/svg">
<path fill-rule="evenodd" clip-rule="evenodd" d="M0.824333 2.25084C0.824333 1.71099 1.03879 1.19325 1.42052 0.81152C1.80225 0.429789 2.31999 0.215335 2.85984 0.215335H23.1507C23.4182 0.214898 23.6832 0.267233 23.9305 0.369345C24.1777 0.471457 24.4025 0.621339 24.5917 0.810411C24.781 0.999483 24.9311 1.22403 25.0335 1.4712C25.1359 1.71837 25.1885 1.98331 25.1884 2.25084V22.5417C25.1887 22.8092 25.1362 23.0743 25.034 23.3215C24.9317 23.5688 24.7817 23.7935 24.5926 23.9828C24.4034 24.1721 24.1788 24.3222 23.9316 24.4245C23.6843 24.5269 23.4193 24.5795 23.1518 24.5794H2.85984C2.59244 24.5794 2.32766 24.5267 2.08063 24.4243C1.8336 24.322 1.60916 24.1719 1.42013 23.9828C1.2311 23.7937 1.08119 23.5691 0.978959 23.3221C0.876731 23.075 0.824188 22.8102 0.824333 22.5428V2.25084ZM10.4681 9.50468H13.7672V11.1614C14.2434 10.209 15.4616 9.35185 17.2922 9.35185C20.8017 9.35185 21.6334 11.2489 21.6334 14.7297V21.1773H18.0818V15.5226C18.0818 13.5403 17.6056 12.4217 16.3963 12.4217C14.7185 12.4217 14.0208 13.6277 14.0208 15.5226V21.1773H10.4681V9.50468ZM4.37705 21.0255H7.92977V9.35185H4.37705V21.0244V21.0255ZM8.4381 5.54441C8.4448 5.8486 8.39067 6.15107 8.27889 6.43405C8.16711 6.71704 7.99993 6.97484 7.78717 7.19235C7.5744 7.40985 7.32034 7.58266 7.03988 7.70064C6.75943 7.81862 6.45823 7.8794 6.15397 7.8794C5.84971 7.8794 5.54851 7.81862 5.26805 7.70064C4.9876 7.58266 4.73353 7.40985 4.52077 7.19235C4.308 6.97484 4.14083 6.71704 4.02905 6.43405C3.91727 6.15107 3.86314 5.8486 3.86984 5.54441C3.88299 4.94733 4.12941 4.37914 4.55633 3.96151C4.98326 3.54388 5.55674 3.31003 6.15397 3.31003C6.75119 3.31003 7.32468 3.54388 7.7516 3.96151C8.17853 4.37914 8.42495 4.94733 8.4381 5.54441V5.54441Z" fill="#111111"/>
</svg>
