<svg width="337" height="52" viewBox="0 0 337 52" fill="none" xmlns="http://www.w3.org/2000/svg">
<path d="M22.469 50H0.965V2H22.469C26.7783 2 30.3837 2.448 33.285 3.344C36.1863 4.19733 38.5117 5.584 40.261 7.504C42.0103 9.424 43.2477 11.8987 43.973 14.928C44.741 17.9573 45.125 21.6267 45.125 25.936C45.125 30.2453 44.741 33.936 43.973 37.008C43.2477 40.0373 42.0103 42.512 40.261 44.432C38.5117 46.352 36.1863 47.76 33.285 48.656C30.3837 49.552 26.7783 50 22.469 50ZM22.725 14.288H16.325V37.712H22.725C24.8583 37.712 26.373 37.4773 27.269 37.008C28.2077 36.496 28.677 35.3653 28.677 33.616V18.384C28.677 16.6347 28.2077 15.5253 27.269 15.056C26.373 14.544 24.8583 14.288 22.725 14.288ZM48.2235 26.064C48.2235 21.6693 48.5862 17.8933 49.3115 14.736C50.0795 11.536 51.3382 8.912 53.0875 6.864C54.8795 4.816 57.2262 3.30133 60.1275 2.32C63.0288 1.33867 66.6128 0.848 70.8795 0.848C75.1888 0.848 78.7728 1.33867 81.6315 2.32C84.5328 3.30133 86.8582 4.816 88.6075 6.864C90.3995 8.912 91.6582 11.536 92.3835 14.736C93.1515 17.8933 93.5355 21.6693 93.5355 26.064C93.5355 30.2453 93.1942 33.9147 92.5115 37.072C91.8288 40.1867 90.6128 42.7893 88.8635 44.88C87.1568 46.9707 84.8315 48.5493 81.8875 49.616C78.9862 50.64 75.3168 51.152 70.8795 51.152C66.4422 51.152 62.7515 50.64 59.8075 49.616C56.9062 48.5493 54.5808 46.9707 52.8315 44.88C51.1248 42.7893 49.9302 40.1867 49.2475 37.072C48.5648 33.9147 48.2235 30.2453 48.2235 26.064ZM64.7355 18.064V38.032H71.1355C73.2688 38.032 74.7835 37.7973 75.6795 37.328C76.6182 36.816 77.0875 35.6853 77.0875 33.936V13.968H70.6235C68.5755 13.968 67.0822 14.224 66.1435 14.736C65.2048 15.2053 64.7355 16.3147 64.7355 18.064ZM123.479 35.856V33.808H119.575V22.032H138.071V47.696C132.012 50 125.719 51.152 119.191 51.152C114.711 51.152 110.999 50.6187 108.055 49.552C105.153 48.4853 102.849 46.9067 101.143 44.816C99.4358 42.6827 98.2412 40.0587 97.5585 36.944C96.9185 33.7867 96.5985 30.1173 96.5985 25.936C96.5985 21.4987 97.0038 17.7013 97.8145 14.544C98.6252 11.344 99.9692 8.74133 101.847 6.736C103.724 4.688 106.22 3.19466 109.335 2.256C112.449 1.31733 116.311 0.848 120.919 0.848C121.943 0.848 123.137 0.911999 124.503 1.04C125.911 1.12533 127.319 1.27467 128.727 1.488C130.135 1.65867 131.457 1.872 132.694 2.128C133.975 2.34133 134.999 2.576 135.767 2.832L133.463 14.608C131.372 14.2667 129.388 14.0107 127.511 13.84C125.633 13.6267 123.884 13.52 122.263 13.52C118.892 13.52 116.524 13.776 115.159 14.288C113.793 14.8 113.111 15.824 113.111 17.36V39.12H118.167C120.044 39.12 121.388 38.928 122.199 38.544C123.052 38.1173 123.479 37.2213 123.479 35.856ZM175.685 20.752V31.888H160.325V37.712H179.141V50H144.965V2H178.757L176.837 14.288H160.325V20.752H175.685ZM200.693 26.704L199.797 50H183.733L186.677 2H206.709L212.661 26.448H213.237L219.189 2H239.285L242.165 50H226.101L225.205 26.704H224.693L218.805 50H207.093L201.141 26.704H200.693ZM245.599 26.064C245.599 21.6693 245.961 17.8933 246.687 14.736C247.455 11.536 248.713 8.912 250.463 6.864C252.255 4.816 254.601 3.30133 257.503 2.32C260.404 1.33867 263.988 0.848 268.255 0.848C272.564 0.848 276.148 1.33867 279.007 2.32C281.908 3.30133 284.233 4.816 285.983 6.864C287.775 8.912 289.033 11.536 289.759 14.736C290.527 17.8933 290.911 21.6693 290.911 26.064C290.911 30.2453 290.569 33.9147 289.887 37.072C289.204 40.1867 287.988 42.7893 286.239 44.88C284.532 46.9707 282.207 48.5493 279.263 49.616C276.361 50.64 272.692 51.152 268.255 51.152C263.817 51.152 260.127 50.64 257.183 49.616C254.281 48.5493 251.956 46.9707 250.207 44.88C248.5 42.7893 247.305 40.1867 246.623 37.072C245.94 33.9147 245.599 30.2453 245.599 26.064ZM262.111 18.064V38.032H268.511C270.644 38.032 272.159 37.7973 273.055 37.328C273.993 36.816 274.463 35.6853 274.463 33.936V13.968H267.999C265.951 13.968 264.457 14.224 263.519 14.736C262.58 15.2053 262.111 16.3147 262.111 18.064ZM323.862 50H296.278V2H321.174C325.782 2 329.067 2.896 331.03 4.688C332.992 6.48 333.974 9.08267 333.974 12.496C333.974 15.952 333.355 18.6187 332.118 20.496C330.88 22.3307 329.195 23.5467 327.062 24.144V24.592C333.248 25.6587 336.342 29.8827 336.342 37.264C336.342 41.104 335.318 44.1973 333.27 46.544C331.264 48.848 328.128 50 323.862 50ZM317.654 30.864H311.638V38.736H317.526C319.702 38.736 320.79 37.4133 320.79 34.768C320.79 32.1653 319.744 30.864 317.654 30.864ZM316.502 12.496H311.638V19.664H316.374C318.336 19.664 319.318 18.4693 319.318 16.08C319.318 13.6907 318.379 12.496 316.502 12.496Z" fill="black"/>
</svg>
