<svg width="30" height="30" viewBox="0 0 30 30" fill="none" xmlns="http://www.w3.org/2000/svg">
<path d="M25.81 3.34277L16.4409 10.3013L18.1735 6.19588L25.81 3.34277Z" fill="#E2761B" stroke="#E2761B" stroke-linecap="round" stroke-linejoin="round"/>
<path d="M4.1806 3.34277L13.4744 10.3673L11.8265 6.19588L4.1806 3.34277ZM22.4386 19.4727L19.9433 23.2957L25.2823 24.7646L26.8171 19.5575L22.4386 19.4727ZM3.19189 19.5575L4.71732 24.7646L10.0563 23.2957L7.56101 19.4727L3.19189 19.5575Z" fill="#E4761B" stroke="#E4761B" stroke-linecap="round" stroke-linejoin="round"/>
<path d="M9.75534 13.0132L8.26758 15.2636L13.5689 15.499L13.3806 9.80224L9.75534 13.0132ZM20.2356 13.0132L16.5632 9.73633L16.4408 15.499L21.7327 15.2636L20.2356 13.0132ZM10.0567 23.2957L13.2393 21.742L10.4898 19.5951L10.0567 23.2957ZM16.7516 21.742L19.9437 23.2957L19.5011 19.5951L16.7516 21.742Z" fill="#E4761B" stroke="#E4761B" stroke-linecap="round" stroke-linejoin="round"/>
<path d="M19.9436 23.2956L16.7516 21.7419L17.0058 23.8229L16.9775 24.6986L19.9436 23.2956ZM10.0566 23.2956L13.0227 24.6986L13.0039 23.8229L13.2393 21.7419L10.0566 23.2956Z" fill="#D7C1B3" stroke="#D7C1B3" stroke-linecap="round" stroke-linejoin="round"/>
<path d="M13.0699 18.2203L10.4146 17.4388L12.2884 16.5819L13.0699 18.2203ZM16.9211 18.2203L17.7027 16.5819L19.5859 17.4388L16.9211 18.2203Z" fill="#233447" stroke="#233447" stroke-linecap="round" stroke-linejoin="round"/>
<path d="M10.0563 23.2957L10.5083 19.4727L7.56104 19.5575L10.0563 23.2957ZM19.4914 19.4727L19.9433 23.2957L22.4386 19.5575L19.4914 19.4727ZM21.7324 15.2637L16.4405 15.4991L16.9301 18.2204L17.7117 16.5819L19.5949 17.4388L21.7324 15.2637ZM10.4141 17.4388L12.2974 16.5819L13.0695 18.2204L13.5686 15.4991L8.26725 15.2637L10.4141 17.4388Z" fill="#CD6116" stroke="#CD6116" stroke-linecap="round" stroke-linejoin="round"/>
<path d="M8.26758 15.2637L10.4898 19.5951L10.4145 17.4388L8.26758 15.2637ZM19.5953 17.4388L19.5011 19.5951L21.7327 15.2637L19.5953 17.4388ZM13.5689 15.4991L13.0698 18.2204L13.6913 21.4313L13.8325 17.2034L13.5689 15.4991ZM16.4408 15.4991L16.1866 17.194L16.2996 21.4313L16.9305 18.2204L16.4408 15.4991Z" fill="#E4751F" stroke="#E4751F" stroke-linecap="round" stroke-linejoin="round"/>
<path d="M16.9306 18.2204L16.2997 21.4313L16.7517 21.742L19.5012 19.5952L19.5953 17.4388L16.9306 18.2204ZM10.4146 17.4388L10.4899 19.5952L13.2394 21.742L13.6914 21.4313L13.0699 18.2204L10.4146 17.4388Z" fill="#F6851B" stroke="#F6851B" stroke-linecap="round" stroke-linejoin="round"/>
<path d="M16.9775 24.6987L17.0058 23.823L16.7704 23.6158H13.2205L13.0039 23.823L13.0227 24.6987L10.0566 23.2957L11.0924 24.1431L13.1922 25.6026H16.7986L18.9079 24.1431L19.9436 23.2957L16.9775 24.6987Z" fill="#C0AD9E" stroke="#C0AD9E" stroke-linecap="round" stroke-linejoin="round"/>
<path d="M16.7516 21.742L16.2996 21.4313H13.6913L13.2393 21.742L13.0039 23.823L13.2205 23.6158H16.7704L17.0058 23.823L16.7516 21.742Z" fill="#161616" stroke="#161616" stroke-linecap="round" stroke-linejoin="round"/>
<path d="M26.2051 10.7533L27.0054 6.91151L25.8096 3.34277L16.7512 10.0659L20.2352 13.0132L25.1599 14.4539L26.2521 13.1827L25.7813 12.8437L26.5346 12.1563L25.9508 11.7044L26.7041 11.13L26.2051 10.7533ZM2.99414 6.91151L3.79452 10.7533L3.28604 11.13L4.03934 11.7044L3.46495 12.1563L4.21825 12.8437L3.74744 13.1827L4.8303 14.4539L9.75497 13.0132L13.239 10.0659L4.18058 3.34277L2.99414 6.91151Z" fill="#763D16" stroke="#763D16" stroke-linecap="round" stroke-linejoin="round"/>
<path d="M25.1599 14.4538L20.2352 13.0131L21.7324 15.2636L19.5007 19.595L22.4386 19.5574H26.8171L25.1599 14.4538ZM9.75498 13.0131L4.83031 14.4538L3.19189 19.5574H7.56101L10.4894 19.595L8.26722 15.2636L9.75498 13.0131ZM16.4405 15.499L16.7512 10.0659L18.1825 6.1958H11.8265L13.239 10.0659L13.5685 15.499L13.6815 17.2127L13.691 21.4312H16.2992L16.3181 17.2127L16.4405 15.499Z" fill="#F6851B" stroke="#F6851B" stroke-linecap="round" stroke-linejoin="round"/>
</svg>
