<svg width="31" height="31" viewBox="0 0 31 31" fill="none" xmlns="http://www.w3.org/2000/svg">
<path d="M19.4516 10.0779H10.7793C10.4111 10.0779 10.1094 10.3797 10.1094 10.7478V19.4201C10.1094 19.7882 10.4111 20.09 10.7793 20.09H19.4516C19.8197 20.09 20.1215 19.7882 20.1215 19.4201V10.7478C20.1215 10.3797 19.8197 10.0779 19.4516 10.0779Z" fill="black"/>
<path d="M9.44184 0.100098H0.769511C0.401387 0.100098 0.0996094 0.401875 0.0996094 0.77V9.44232C0.0996094 9.81045 0.401387 10.1122 0.769511 10.1122H9.44184C9.80996 10.1122 10.1117 9.81045 10.1117 9.44232V0.77C10.1096 0.401875 9.80996 0.100098 9.44184 0.100098Z" fill="black"/>
<path d="M29.4301 0.100098H20.7578C20.3897 0.100098 20.0879 0.401875 20.0879 0.77V9.44232C20.0879 9.81045 20.3897 10.1122 20.7578 10.1122H29.4301C29.7982 10.1122 30.1 9.81045 30.1 9.44232V0.77C30.1 0.401875 29.7982 0.100098 29.4301 0.100098Z" fill="black"/>
<path d="M9.44184 20.0559H0.769511C0.401387 20.0559 0.0996094 20.3577 0.0996094 20.7258V29.3981C0.0996094 29.7663 0.401387 30.068 0.769511 30.068H9.44184C9.80996 30.068 10.1117 29.7663 10.1117 29.3981V20.7258C10.1096 20.3577 9.80996 20.0559 9.44184 20.0559Z" fill="black"/>
<path d="M29.4301 20.0559H20.7578C20.3897 20.0559 20.0879 20.3577 20.0879 20.7258V29.3981C20.0879 29.7663 20.3897 30.068 20.7578 30.068H29.4301C29.7982 30.068 30.1 29.7663 30.1 29.3981V20.7258C30.1 20.3577 29.7982 20.0559 29.4301 20.0559Z" fill="black"/>
</svg>
