<svg width="28" height="28" viewBox="0 0 28 28" fill="none" xmlns="http://www.w3.org/2000/svg">
<path d="M27.551 14.2463C27.551 21.8096 21.4188 27.9417 13.8555 27.9417C6.29218 27.9417 0.160034 21.8096 0.160034 14.2463C0.160034 6.68293 6.29218 0.550781 13.8555 0.550781C21.4188 0.550781 27.551 6.68293 27.551 14.2463Z" fill="#111111"/>
<path d="M5.33214 14.0521C10.1187 11.9464 16.3125 9.37922 17.1678 9.02383C19.4104 8.0939 20.0986 8.27195 19.7555 10.3317C19.509 11.8122 18.7982 16.7132 18.2312 19.7638C17.895 21.573 17.1404 21.7873 15.9543 21.0046C15.3839 20.628 12.5045 18.7236 11.8793 18.2765C11.3088 17.869 10.522 17.3788 11.5088 16.4132C11.8601 16.0695 14.1616 13.8713 15.955 12.1608C16.1899 11.9362 15.8948 11.5671 15.6236 11.7472C13.2064 13.3502 9.85507 15.5751 9.42845 15.8647C8.78408 16.3023 8.16505 16.5029 7.05434 16.1838C6.21481 15.9428 5.39514 15.6552 5.07603 15.5456C3.84686 15.1238 4.13858 14.5773 5.33214 14.0521Z" fill="white"/>
</svg>
